#!OML:ASF F:\VICON\USERDATA\INSTALL\rory3\rory3.ASF
:FULLY-SPECIFIED
:DEGREES
48
root 0.5632509055838704 17.848670106439894 14.254595874804977 -2.625804452606339 3.1074535185922363 -1.9225867811118875
lfemur 7.087655475459271 -4.514238652545833 -19.94540915326366
ltibia 41.64001165381232
lfoot 9.377478174489724 -14.377193735593615
ltoes -9.752437898724558
rfemur -22.45995573887909 4.713696933582361 24.183394677909654
rtibia 28.89374512553636
rfoot -8.463675271404048 -7.731767715258351
rtoes 0.043979779324038404
lowerback -1.0 -1.1745596928674527 -0.30178805493193694
upperback 0.03401409677399042 -1.4531212512970009 2.325731735771167
thorax -5.845988763410857 -0.6719948899218152 3.302565780976451
lowerneck -17.071743975925624 -3.1219758464666327 -2.070405695888433
upperneck 21.837016497984937 -4.048053964233785 1.3944945303930414
head 9.836996321508574 -1.9288559085865136 0.2646796872654112
lclavicle 5.417527351955388e-16 -5.640897255655779e-16
lhumerus -25.456940655539103 -0.8678306030492755 82.27763781920628
lradius 31.267487301117118
lwrist 10.334038056179503
lhand -29.24187698922547 21.894571322747005
lfingers nan
lthumb -2.890593407483208 50.49644378882148
rclavicle 3.7960727787029266e-16 -6.59722952188798e-16
rhumerus -38.28019904049963 -27.979715485249997 -71.09950636343173
rradius 24.89397140915813
rwrist 6.7248323018039295
rhand -18.033719960047293 -1.0
rfingers nan
rthumb 8.0695370290214 -7.244989618367597
49
root 0.5013737734248855 17.92774891992682 14.865715883825619 -3.1498996933408594 2.8398653030541974 -3.0761163789465282
lfemur 2.014461802265177 -3.589685812290952 -17.711866287101003
ltibia 50.604148190056
lfoot 14.998368286879419 -16.685244045464515
ltoes 0.23117149784161128
rfemur -19.45748849086751 5.043965715736082 26.223746410379306
rtibia 27.996106459167287
rfoot -9.908693174971187 -7.790850167224525
rtoes 1.6045868349466201
lowerback -1.0 -1.0007145020701307 0.9199749202253997
upperback -0.0013399778331769224 -1.0123784416463102 2.491460029159552
thorax -5.921791736316374 -0.4831084870337027 2.678031429091412
lowerneck -16.924091422761908 -3.0953012666393143 -1.9840587372861163
upperneck 21.826118562809757 -4.011894959135704 1.3433221752781295
head 9.824032491424626 -1.923453609454852 0.25475401862435637
lclavicle 6.203171231353244e-16 -8.660593581549574e-16
lhumerus -26.338191326288214 -0.34720820128305485 82.52252123027291
lradius 30.823523446122405
lwrist 10.046738097597892
lhand -29.135926799327613 22.103389460074656
lfingers nan
lthumb -2.7580711773384454 50.71526094394848
rclavicle 5.608759212444437e-16 -8.684723268955292e-16
rhumerus -38.00433315778656 -27.99901431987495 -71.1579447103566
rradius 24.504153048101692
rwrist 6.821875157863708
rhand -17.874851814102406 -1.0
rfingers nan
rthumb 8.246061421065486 -7.386512906397095
50
root 0.4206576654576186 18.01662484994284 15.177365700456107 -3.4835107936588394 2.615437654724208 -4.496534774836965
lfemur -4.3968581704683185 -2.625393894358235 -15.264922463670937
ltibia 59.24071104427895
lfoot 13.698611563131628 -15.329370498272574
ltoes 1.879440831088015
rfemur -15.552942962736658 5.354657456567783 28.464871133936477
rtibia 25.727318671167097
rfoot -11.857871431046059 -7.967926034363543
rtoes 1.6725078927406916
lowerback -1.0 -0.7914443101931429 2.2426314418367124
upperback -0.026533909011725476 -0.4871015047783138 2.6431360681771814
thorax -6.012748692348547 -0.25407924780025115 1.9649988500355953
lowerneck -16.798256864940512 -3.090002761009548 -1.9217051223987227
upperneck 21.7375456214443 -4.01639037945084 1.3338554089000267
head 9.780936507345425 -1.9247115346484023 0.24994671682483494
lclavicle 1.149910293856488e-15 -6.210558727408816e-16
lhumerus -27.319732512613655 0.1369135602585243 82.781622271008
lradius 30.297168627942465
lwrist 9.602721794744761
lhand -29.04034032503162 22.279241526704006
lfingers nan
lthumb -2.5996887083495626 50.99519739196464
rclavicle 9.49534297227297e-16 -6.688193001947016e-16
rhumerus -37.15247525828172 -27.45750323352686 -71.91007796699814
rradius 24.423401369367728
rwrist 6.673700927705195
rhand -17.75159410115455 -1.0
rfingers nan
rthumb 8.401826184209792 -7.502050012422904
51
root 0.37417907088233576 18.06434362847265 16.360063249479136 -3.5437195891274245 2.321307842524491 -5.218499784793643
lfemur -10.117445256501451 -1.37792019601192 -13.91738809382445
ltibia 65.02374759798049
lfoot 6.907333619714156 -14.060897284775539
ltoes -4.1622926148080435
rfemur -11.643224544703621 5.264773717290062 30.01908807983053
rtibia 23.193445982667896
rfoot -14.261957484730337 -7.943413309704622
rtoes 1.5750238214919365
lowerback -1.0 -0.49822578255172445 2.8927900974284997
upperback 0.008520424670093826 0.02027812130386447 2.6502181004314034
thorax -6.044530411064768 -0.023163137442443887 1.3250975814904973
lowerneck -16.67342674768184 -3.1123760009764028 -1.865500020736794
upperneck 21.615873086222013 -4.062925499431816 1.3303115506028933
head 9.727640780900035 -1.9373786759212512 0.23686242470093632
lclavicle 9.392414999540605e-16 -7.326734641181786e-16
lhumerus -28.272630805975012 0.6287862513885645 83.04454430918058
lradius 29.674109162104493
lwrist 9.155178733213123
lhand -28.972956104836246 22.2771654740685
lfingers nan
lthumb -2.468009717781466 51.142485443867095
rclavicle 8.154166273819749e-16 -7.221783590531374e-16
rhumerus -35.89684901696937 -26.531729579501416 -73.06235710177701
rradius 24.51888751611321
rwrist 6.501471117258575
rhand -17.66525520107313 -1.0
rfingers nan
rthumb 8.50590213544899 -7.605031021542054
52
root 0.3518639619131698 18.096739553820694 16.76995501675744 -3.5086103405776865 1.678109944312801 -5.735341530584929
lfemur -15.149409756260887 0.06888494656529431 -13.108595265771008
ltibia 67.75811563632325
lfoot 0.8412020222494387 -11.851651233760222
ltoes -10.41427345779672
rfemur -9.249297839722153 5.099342157312524 31.051192273310146
rtibia 22.93214899994249
rfoot -16.209479442128323 -7.565354613521512
rtoes 2.0022118616516984
lowerback -1.0 -0.1488280611946062 3.464381543487578
upperback 0.08168669719858468 0.6162883602478664 2.6133528518671354
thorax -5.994275451597146 0.24846821987573298 0.7192060641255734
lowerneck -16.576236499689028 -3.1446411440236735 -1.808848500071757
upperneck 21.485904325788585 -4.133871459128896 1.3532495496667734
head 9.675143303156386 -1.9512529361589033 0.2222289890985387
lclavicle 6.432752482431089e-16 -7.441311358625298e-16
lhumerus -29.208423941546712 1.13052350497252 83.24889292363352
lradius 29.0256812211051
lwrist 8.793541188467648
lhand -29.011317737701418 21.966063626144766
lfingers nan
lthumb -2.4716925431662355 50.97250561495749
rclavicle 7.410705605579886e-16 -6.560804198614823e-16
rhumerus -34.554836004873366 -25.338821666285263 -74.33931968411915
rradius 24.8859979267405
rwrist 5.966422304474451
rhand -17.6256904568431 -1.0
rfingers nan
rthumb 8.556819985335343 -7.705581202896466
53
root 0.34204212723386546 18.149879651104552 17.546572979893156 -3.2640200846438936 1.1905715906064271 -6.0790823377788366
lfemur -19.24153854938371 1.4116676276793063 -12.759842975212521
ltibia 67.64799022802609
lfoot -2.438519272541831 -8.574258265281994
ltoes -10.176574602394654
rfemur -7.070966785459622 4.525421668557698 32.129260633603536
rtibia 23.5403116849016
rfoot -17.25367351606745 -7.1252091041923205
rtoes 2.9434953878565384
lowerback -1.0 0.1713540196730456 4.005202157589336
upperback 0.12127760897877779 1.1296553434092915 2.5576887189943527
thorax -5.944603031126439 0.4903052417433251 0.17377782911062756
lowerneck -16.56569154960443 -3.183877164857298 -1.7840484984319591
upperneck 21.38895780500695 -4.216097220921514 1.4030070089358482
head 9.635596980921278 -1.9691997038956346 0.21872275043155176
lclavicle 8.760452203887291e-16 -5.839013286050466e-16
lhumerus -30.126071285336508 1.6455148664121548 83.35329535277043
lradius 28.387886619226986
lwrist 8.54086256860707
lhand -29.02981933553052 21.63367951915631
lfingers nan
lthumb -2.4845320209985937 50.73800718687681
rclavicle 8.907211223487975e-16 -5.779593891371012e-16
rhumerus -33.183464938423754 -23.750575895669765 -75.68923604162494
rradius 25.651475611396144
rwrist 4.916888494734319
rhand -17.66539561225904 -1.0
rfingers nan
rthumb 8.576018326449612 -7.729626682103059
54
root 0.35901696883212214 18.145250035142734 18.320223268231793 -2.846464742477434 0.6297284943622704 -6.269442403275704
lfemur -22.069668859741803 2.470773187093104 -12.73668138695247
ltibia 64.49987352881035
lfoot -4.481566294007865 -5.73638143425293
ltoes -10.733205440648897
rfemur -5.646805131011728 4.136418540917747 33.05140861765671
rtibia 25.116377230968624
rfoot -17.1251714904004 -6.617876356443341
rtoes 3.8489063215600803
lowerback -1.0 0.493423269429595 4.4943405332173825
upperback 0.058452656879404735 1.6598105894729882 2.4573445135947534
thorax -5.965249241031903 0.7470207025477331 -0.33408570634149237
lowerneck -16.61181096877804 -3.2159442170617476 -1.751880473787028
upperneck 21.283055105789185 -4.2982046240985285 1.4427241485165256
head 9.597086720296955 -1.9888976410471702 0.2115411183225722
lclavicle 1.3581185255158706e-15 -3.116088698714967e-16
lhumerus -30.98013295346352 2.210500751993454 83.34304967417837
lradius 27.74340596062455
lwrist 8.413424644576786
lhand -29.08313111867432 21.259096647579117
lfingers nan
lthumb -2.5416862104855897 50.41796905190227
rclavicle 1.2723738821624171e-15 -3.4995251000308158e-16
rhumerus -31.792402029118712 -21.82425070465706 -77.09423415253976
rradius 26.832306764105805
rwrist 3.522950730584262
rhand -17.74039861305627 -1.0
rfingers nan
rthumb 8.540758214168758 -7.594951675719796
55
root 0.3790949745722622 18.1000180030581 19.517287940513917 -2.432358837787252 -0.0625517673480673 -6.313075944192971
lfemur -24.117571182744495 2.913859380259999 -12.801479613810557
ltibia 59.03264423605903
lfoot -5.392594184539752 -3.3473339916606553
ltoes -11.404587113966457
rfemur -4.770748374107974 4.006614521240312 33.508237574951
rtibia 27.0831620592688
rfoot -16.009206871010537 -6.112855551793716
rtoes 4.243671666271326
lowerback -1.0 0.8122529328495484 4.926107190288196
upperback -0.02629702472293255 2.1269589687656767 2.3715121296040924
thorax -6.024213310910126 0.9682138121593711 -0.784786394783002
lowerneck -16.712783511401504 -3.2458899363721754 -1.6940967001495875
upperneck 21.136717178580078 -4.390431189350465 1.4769618386686496
head 9.547162645139817 -2.0117120820828807 0.20252353352490354
lclavicle 1.128576778755389e-15 -4.444943574009983e-16
lhumerus -31.744808853316375 2.8559159192877863 83.22715045494178
lradius 27.086279980043827
lwrist 8.274461579068731
lhand -29.097818669208568 20.98881395245002
lfingers nan
lthumb -2.5707699598806637 50.15179744270474
rclavicle 1.1534486120509105e-15 -4.015229007536616e-16
rhumerus -30.39591585506296 -19.700950760293196 -78.35219613435194
rradius 28.21152068032984
rwrist 2.145151479672243
rhand -17.922030686808696 -1.0
rfingers nan
rthumb 8.453228711523733 -7.299810421801166
